<svg style="width:19px;height:19px" enable-background="new 0 0 128 128" viewBox="0 0 128 128" xmlns="http://www.w3.org/2000/svg">
    <path fill="currentColor" d="m55.021 128v-24.072h17.958v24.072zm-42.631-25.098 17.012-17.027 12.705 12.695-17.013 17.03zm73.492-4.323 12.697-12.697 17.021 17.025-12.693 12.693zm-21.87-1.104c-18.458 0-33.475-15.017-33.475-33.475s15.017-33.475 33.475-33.475 33.474 15.017 33.474 33.475-15.015 33.475-33.474 33.475zm0-48.991c-8.556 0-15.517 6.96-15.517 15.516 0 8.557 6.961 15.518 15.517 15.518 8.554 0 15.515-6.961 15.515-15.518 0-8.556-6.961-15.516-15.515-15.516zm39.916 24.495v-17.958h24.072v17.958zm-103.928 0v-17.958h24.072v17.958zm12.394-47.881 12.706-12.694 17.011 17.022-12.69 12.699zm73.488 4.322 17.026-17.022 12.689 12.694-17.018 17.027zm-30.861-5.348v-24.072h17.958v24.072z"/>
</svg>