<svg enable-background="new 0 0 860 860" height="860" viewBox="0 0 860 860" width="860" xmlns="http://www.w3.org/2000/svg"><path d="m126.298 731.202 86.254-86.254c-.03-.03-.061-.06-.091-.089-59.308-59.281-91.967-138.26-91.967-222.392 0-84.125 32.659-163.11 91.967-222.398 15.779-15.76 33.134-29.729 51.847-41.736.358 114.776 45.788 225.173 127.522 307.277l.029.029 86.27-86.271c-.012-.013-.023-.024-.037-.037-78.877-79.259-109.994-195.626-81.203-303.704 8.615-32.481-10.796-65.934-43.281-74.579-5.114-1.356-10.387-2.048-15.668-2.048-5.334 0-10.656.699-15.75 2.077-73.992 19.713-141.764 58.681-196.012 112.713-82.333 82.291-127.678 191.9-127.678 308.626 0 116.723 45.345 226.348 127.637 308.626.053.054.108.106.161.16z"/><g fill="#ffc222"><path d="m124.945 732.555 45.155 45.133 114.306-114.42-45.104-45.069z"/><path d="m431.58 655.91c124.021 0 224.904-100.896 224.904-224.91 0-63.296-26.291-120.559-68.517-161.469l-85.3 85.3c20.387 19.04 33.154 46.139 33.154 76.169 0 57.492-46.77 104.262-104.242 104.262-30.034 0-57.137-12.771-76.179-33.162l-85.292 85.291c40.912 42.225 98.175 68.519 161.472 68.519z"/><path d="m663.828 283.987 114.339-114.4-45.118-45.136-114.375 114.375z"/><path d="m371.172 699.268h120.656v161.732h-120.656z"/><path d="m699.767 370.672h161.733v120.656h-161.733z"/><path d="m578.52 663.328 114.387 114.359 85.281-85.281-114.36-114.386z"/></g></svg>